HIERARCHY
ROOT Hips
{
	OFFSET 0.00000 0.00000 0.00000
	CHANNELS 6 Xposition Yposition Zposition Zrotation Yrotation Xrotation 
	JOINT LHipJoint
	{
		OFFSET 0 0 0
		CHANNELS 3 Zrotation Yrotation Xrotation
		JOINT LeftUpLeg
		{
			OFFSET 1.51378 -1.89840 0.47569
			CHANNELS 3 Zrotation Yrotation Xrotation
			JOINT LeftLeg
			{
				OFFSET 2.53380 -6.96157 0.00000
				CHANNELS 3 Zrotation Yrotation Xrotation
				JOINT LeftFoot
				{
					OFFSET 2.74874 -7.55212 0.00000
					CHANNELS 3 Zrotation Yrotation Xrotation
					JOINT LeftToeBase
					{
						OFFSET 0.18263 -0.50178 1.99677
						CHANNELS 3 Zrotation Yrotation Xrotation
						End Site
						{
							OFFSET 0.00000 -0.00000 1.03711
						}
					}
				}
			}
		}
	}
	JOINT RHipJoint
	{
		OFFSET 0 0 0
		CHANNELS 3 Zrotation Yrotation Xrotation
		JOINT RightUpLeg
		{
			OFFSET -1.43037 -1.89840 0.47569
			CHANNELS 3 Zrotation Yrotation Xrotation
			JOINT RightLeg
			{
				OFFSET -2.69849 -7.41406 0.00000
				CHANNELS 3 Zrotation Yrotation Xrotation
				JOINT RightFoot
				{
					OFFSET -2.69369 -7.40087 0.00000
					CHANNELS 3 Zrotation Yrotation Xrotation
					JOINT RightToeBase
					{
						OFFSET -0.28932 -0.79491 2.04975
						CHANNELS 3 Zrotation Yrotation Xrotation
						End Site
						{
							OFFSET 0.00009 0.00010 1.09536
						}
					}
				}
			}
		}
	}
	JOINT LowerBack
	{
		OFFSET 0 0 0
		CHANNELS 3 Zrotation Yrotation Xrotation
		JOINT Spine
		{
			OFFSET 0.01912 1.94784 -0.02419
			CHANNELS 3 Zrotation Yrotation Xrotation
			JOINT Spine1
			{
				OFFSET 0.07565 1.94258 0.01909
				CHANNELS 3 Zrotation Yrotation Xrotation
				JOINT Neck
				{
					OFFSET 0 0 0
					CHANNELS 3 Zrotation Yrotation Xrotation
					JOINT Neck1
					{
						OFFSET -0.07010 1.86195 0.18976
						CHANNELS 3 Zrotation Yrotation Xrotation
						JOINT Head
						{
							OFFSET 0.02284 1.86595 -0.31497
							CHANNELS 3 Zrotation Yrotation Xrotation
							End Site
							{
								OFFSET 0.01200 1.90122 -0.12838
							}
						}
					}
				}
				JOINT LeftShoulder
				{
					OFFSET 0 0 0
					CHANNELS 3 Zrotation Yrotation Xrotation
					JOINT LeftArm
					{
						OFFSET 3.39189 0.96331 -0.10437
						CHANNELS 3 Zrotation Yrotation Xrotation
						JOINT LeftForeArm
						{
							OFFSET 5.14845 -0.00000 0.00000
							CHANNELS 3 Zrotation Yrotation Xrotation
							JOINT LeftHand
							{
								OFFSET 3.43674 -0.00000 -0.00000
								CHANNELS 3 Zrotation Yrotation Xrotation
								JOINT LeftFingerBase
								{
									OFFSET 0 0 0
									CHANNELS 3 Zrotation Yrotation Xrotation
									JOINT LeftHandIndex1
									{
										OFFSET 0.58871 -0.00000 0.00000
										CHANNELS 3 Zrotation Yrotation Xrotation
										End Site
										{
											OFFSET 0.47463 -0.00000 0.00000
										}
									}
								}
								JOINT LThumb
								{
									OFFSET 0 0 0
									CHANNELS 3 Zrotation Yrotation Xrotation
									End Site
									{
										OFFSET 0.48188 -0.00000 0.48188
									}
								}
							}
						}
					}
				}
				JOINT RightShoulder
				{
					OFFSET 0 0 0
					CHANNELS 3 Zrotation Yrotation Xrotation
					JOINT RightArm
					{
						OFFSET -3.34934 1.18831 -0.19928
						CHANNELS 3 Zrotation Yrotation Xrotation
						JOINT RightForeArm
						{
							OFFSET -5.42185 -0.00000 0.00000
							CHANNELS 3 Zrotation Yrotation Xrotation
							JOINT RightHand
							{
								OFFSET -3.51317 -0.00000 -0.00000
								CHANNELS 3 Zrotation Yrotation Xrotation
								JOINT RightFingerBase
								{
									OFFSET 0 0 0
									CHANNELS 3 Zrotation Yrotation Xrotation
									JOINT RightHandIndex1
									{
										OFFSET -0.66319 -0.00000 0.00000
										CHANNELS 3 Zrotation Yrotation Xrotation
										End Site
										{
											OFFSET -0.53468 -0.00000 0.00000
										}
									}
								}
								JOINT RThumb
								{
									OFFSET 0 0 0
									CHANNELS 3 Zrotation Yrotation Xrotation
									End Site
									{
										OFFSET -0.54284 -0.00000 0.54284
									}
								}
							}
						}
					}
				}
			}
		}
	}
}
MOTION
Frames: 12
Frame Time: 0.0307692
0.00 0.00 0.00 2.0745 -40.9612 2.5402 0.0000 0.0000 0.0000 -24.5870 -3.8717 -12.8568 0.7977 5.7006 15.9182 0.2360 -1.7452 -8.7335 0.0393 1.2791 3.5171 0.0000 0.0000 0.0000 14.3348 -4.3581 -21.0067 -9.6854 -17.2291 58.4318 0.5545 -16.4695 -16.8291 -0.5076 -4.5671 12.6778 -1.9642 1.6356 2.1661 1.2721 2.1250 3.4357 2.4000 0.9894 2.1943 -3.3007 2.3453 -11.3690 -7.6451 4.9533 14.3838 -1.4625 1.5636 6.3940 0.0000 -0.0000 0.0000 -73.8463 35.3194 59.1327 66.7215 -57.8500 -39.9857 -0.0000 -0.0000 16.2406 38.1138 -0.9070 -0.7114 -7.1250 0.0000 -0.0000 8.9702 28.7782 -3.5839 0.0000 -0.0000 0.0000 67.6882 -34.8620 64.4103 -60.3098 56.3919 -34.5990 0.0000 0.0000 21.7446 -66.9420 40.2182 -56.6057 7.1250 -0.0000 -0.0000 -14.7463 33.6720 -20.8211
0.00 0.00 0.00 -0.7872 -17.9138 4.8513 0.0000 0.0000 0.0000 -24.1817 -4.2430 -7.4735 0.9746 6.2848 17.6129 -0.2757 -20.3431 -11.9580 0.0807 1.8330 5.0444 0.0000 0.0000 0.0000 19.8172 10.3961 -32.1671 -1.2343 -7.0455 19.8502 0.0945 -9.5933 -11.9008 -0.8029 5.7189 -15.9711 -3.1208 1.2376 3.5726 1.4229 1.5560 4.3292 3.1907 0.6624 2.3328 -4.7260 -0.0341 -11.0347 -5.5471 1.7201 15.4573 -0.8497 0.0816 6.5684 0.0000 0.0000 0.0000 -75.3244 35.3902 57.3014 67.2854 -57.9578 -40.4634 -0.0000 -0.0000 15.9376 39.1886 -0.7263 -0.5921 -7.1250 0.0000 -0.0000 9.8208 28.9808 -3.8847 0.0000 0.0000 0.0000 66.6344 -32.7207 64.0938 -61.6028 56.7221 -35.6780 0.0000 0.0000 26.3734 -67.5085 39.8769 -57.1462 7.1250 -0.0000 -0.0000 -15.1962 33.8283 -21.4901
0.00 0.00 0.00 -0.4407 -10.0914 9.5624 0.0000 0.0000 0.0000 -23.4829 -2.7801 -1.0755 1.0122 6.4012 17.9529 -2.2267 -26.5029 1.6114 0.5991 4.9548 13.7796 0.0000 0.0000 0.0000 27.0030 9.3096 -31.0459 -1.6597 -8.1181 23.0735 1.0141 -18.3505 -12.8983 -1.2441 -7.0723 19.9298 -1.1172 0.8631 1.5219 2.4975 1.1038 2.8816 3.1970 0.4971 2.0344 -5.2353 -2.1931 -11.6435 -1.8485 -1.6122 18.7902 0.0957 -1.3153 7.7635 0.0000 0.0000 0.0000 -77.5274 36.1351 55.2999 65.8278 -57.6728 -39.2298 -0.0000 -0.0000 14.2349 36.6965 -1.8885 -1.4069 -7.1250 0.0000 -0.0000 7.7733 27.5990 -3.3158 0.0000 0.0000 0.0000 63.5649 -33.1479 67.2876 -61.4099 56.6741 -35.5167 0.0000 0.0000 25.9446 -68.9419 39.9712 -59.0633 7.1250 -0.0000 -0.0000 -15.8447 35.0932 -22.5166
0.00 0.00 0.00 -1.7548 -12.2216 9.5779 0.0000 0.0000 0.0000 -21.1871 -0.6721 -5.2289 2.3580 9.5749 27.6109 -1.7606 -23.6444 16.3367 0.9573 6.2303 17.4542 0.0000 0.0000 0.0000 29.2037 7.9541 -28.1172 -1.8804 -8.6125 24.5904 0.4411 -14.8322 -15.2435 -0.7680 -5.5959 15.6163 0.4245 0.5955 1.8720 3.2143 0.7520 2.5465 3.0605 0.3482 1.5256 -5.0983 -2.3181 -11.7286 -0.7050 -2.0186 21.2994 0.3948 -1.4384 8.6331 -0.0000 -0.0000 0.0000 -76.7989 36.2366 57.9456 63.5054 -57.1739 -37.2727 -0.0000 -0.0000 14.9777 38.2723 0.1258 0.0992 -7.1250 0.0000 -0.0000 9.2146 30.0729 -3.3962 -0.0000 -0.0000 0.0000 62.9411 -33.7705 66.5311 -62.0210 56.8249 -36.0278 0.0000 0.0000 27.3449 -68.9451 40.3581 -59.2693 7.1250 -0.0000 -0.0000 -15.6389 35.4254 -22.2294
0.00 0.00 0.00 -2.8627 -15.6967 9.4702 0.0000 0.0000 0.0000 -18.3467 0.3735 -13.9750 5.4225 13.8443 42.6173 -1.8092 -23.2509 5.1422 0.6354 -5.1001 -14.1944 0.0000 0.0000 0.0000 31.1011 6.4426 -25.3047 -1.9721 -8.8076 25.1954 -0.0291 -11.0728 -16.1815 -0.2744 -3.3692 9.3084 0.6739 0.6048 1.6686 3.9720 0.7181 3.2150 3.7170 0.3145 2.3269 -4.2897 -2.7315 -11.4734 -0.3587 -2.8700 22.5161 0.2779 -1.7583 9.0091 -0.0000 0.0000 0.0000 -77.4913 34.3853 58.9307 61.4481 -56.6836 -35.5486 -0.0000 -0.0000 14.2258 38.0663 -0.8214 -0.6432 -7.1250 0.0000 -0.0000 8.9436 28.8867 -3.5498 -0.0000 0.0000 0.0000 61.8525 -33.3450 66.1790 -63.8922 57.2609 -37.5979 0.0000 0.0000 25.1227 -68.0370 41.5575 -58.7038 7.1250 -0.0000 -0.0000 -14.5493 35.6960 -20.6397
0.00 0.00 0.00 -3.0206 -19.7366 8.7949 0.0000 0.0000 0.0000 -17.0176 1.3383 -18.3760 6.9205 15.2646 48.5731 0.3660 -6.4471 -11.0031 1.0552 -6.5316 -18.3349 0.0000 0.0000 0.0000 31.3381 6.7687 -22.2530 -1.9862 -8.8373 25.2877 -0.3114 -8.6219 -16.9942 -0.2711 -3.3492 9.2526 0.4657 0.7587 1.7559 3.7559 0.9065 3.7134 3.6170 0.3974 2.7816 -4.4922 -2.9003 -10.7440 0.9854 -3.4444 23.1419 0.7112 -1.9181 9.1270 -0.0000 -0.0000 0.0000 -77.7771 33.7967 58.2241 61.4217 -56.6770 -35.5266 -0.0000 -0.0000 14.3192 38.9316 -0.7053 -0.5697 -7.1250 0.0000 -0.0000 9.6254 29.0132 -3.7979 -0.0000 -0.0000 0.0000 61.9249 -32.9039 66.7470 -63.0012 57.0580 -36.8493 0.0000 0.0000 25.2173 -68.7861 41.3845 -59.5818 7.1250 -0.0000 -0.0000 -14.9997 36.1546 -21.3216
0.00 0.00 0.00 -4.2171 -57.2700 10.6683 0.0000 0.0000 0.0000 -6.3026 -19.9494 -16.7532 1.0131 6.4041 17.9615 -0.8051 -21.6573 -8.1023 0.7234 -5.4347 -15.1527 0.0000 0.0000 0.0000 24.2593 19.1738 -10.9539 -2.8249 -10.4061 30.3019 -1.4331 10.6813 -21.5984 -0.0156 0.8063 -2.2159 1.3085 0.6181 2.5009 4.7927 0.6419 3.9141 4.2135 0.2393 2.5898 -7.0500 -7.9040 -7.7640 3.7944 -11.4257 26.4533 1.1839 -5.6876 10.3490 -0.0000 -0.0000 0.0000 -78.1734 33.7316 57.9709 61.5242 -56.7026 -35.6122 -0.0000 -0.0000 14.5622 40.5723 -0.6666 -0.5708 -7.1250 0.0000 -0.0000 10.8946 29.0241 -4.3116 -0.0000 -0.0000 0.0000 61.7612 -33.2369 65.6205 -64.3175 57.3548 -37.9558 0.0000 0.0000 24.0675 -65.7357 41.6508 -55.8523 7.1250 -0.0000 -0.0000 -13.4245 33.9837 -18.9129
0.00 0.00 0.00 -159.2960 -67.5862 165.2590 0.0000 0.0000 0.0000 -9.0467 -3.4832 -3.1954 1.2271 7.0257 19.7915 -0.5964 19.0627 -21.3889 0.2872 -3.4465 -9.5244 0.0000 0.0000 0.0000 27.7226 8.8216 -12.4631 -2.4151 -9.6818 27.9524 -1.2284 0.9643 -20.6613 -0.0304 1.1253 -3.0936 -0.3933 -0.8782 -3.2454 4.3155 -1.3792 1.4403 4.6035 -0.7865 3.4261 -14.6339 -16.5999 3.3708 12.7265 -24.2346 9.6153 4.5462 -12.1733 5.6864 0.0000 -0.0000 0.0000 -77.6053 35.7518 60.3073 58.2354 -55.8211 -32.8770 -0.0000 -0.0000 5.9781 41.3077 1.0029 0.8812 -7.1250 0.0000 -0.0000 11.7150 31.1827 -4.0314 0.0000 -0.0000 0.0000 48.9716 -24.0884 20.7744 -85.5672 59.9256 -56.1621 0.0000 0.0000 7.1031 -42.1371 30.3263 -24.5523 7.1250 -0.0000 -0.0000 -6.0733 8.0972 -6.9045
0.00 0.00 0.00 -158.8830 -67.0395 164.8400 0.0000 0.0000 0.0000 -8.0310 -3.2928 -2.4952 1.2142 6.9901 19.6859 -0.7163 19.8811 -21.5940 0.3856 -3.9879 -11.0427 0.0000 0.0000 0.0000 28.8845 8.4994 -12.0235 -2.3945 -9.6435 27.8299 -1.2543 2.0218 -20.6022 -0.0066 0.5242 -1.4403 -0.2098 -0.8744 -3.7223 4.3935 -1.3791 0.9362 4.5760 -0.7755 3.1707 -14.1394 -16.1441 3.4832 11.8214 -23.6957 10.7472 4.2798 -11.9398 5.7751 0.0000 -0.0000 0.0000 -77.4136 35.8212 61.0542 57.8102 -55.6976 -32.5255 -0.0000 -0.0000 5.7135 40.5657 1.8728 1.6026 -7.1250 0.0000 -0.0000 11.2521 32.3047 -3.5568 0.0000 -0.0000 0.0000 43.3065 -19.7920 8.4970 -103.6626 59.2828 -71.8037 0.0000 -0.0000 -7.7085 -41.6458 25.3384 -20.8356 7.1250 -0.0000 -0.0000 -7.0511 2.1641 -7.3676
0.00 0.00 0.00 -156.8020 -66.4412 162.8450 0.0000 0.0000 0.0000 -6.0236 -2.5831 -2.2874 1.2750 7.1563 20.1791 -0.5826 19.4571 -22.2655 0.3483 -3.7920 -10.4921 0.0000 0.0000 0.0000 30.8785 8.1903 -11.4349 -2.3801 -9.6167 27.7440 -1.3097 2.9829 -20.8585 -0.0025 -0.3206 0.8808 0.4491 -0.8953 -4.2476 4.7770 -1.4661 0.3582 4.5923 -0.8123 2.8706 -14.0655 -15.4028 3.7048 11.3922 -22.8767 11.9521 4.2368 -11.5838 5.9468 0.0000 -0.0000 0.0000 -77.6860 36.3190 60.9195 57.3820 -55.5710 -32.1720 -0.0000 -0.0000 5.7609 41.3576 2.4032 2.1140 -7.1250 0.0000 -0.0000 11.9655 33.0081 -3.5832 0.0000 -0.0000 0.0000 35.6015 -14.3363 -2.1484 -119.6365 56.4060 -85.3563 0.0000 -0.0000 -22.5654 -41.2152 19.6501 -16.4120 7.1250 -0.0000 -0.0000 -8.0491 -4.8000 -7.4225
0.00 0.00 0.00 -153.1420 -66.1367 159.3710 0.0000 0.0000 0.0000 -2.1754 -0.3505 -4.4920 1.7635 8.3551 23.7978 -0.0292 16.5141 -23.1393 0.3042 -3.5459 -9.8024 0.0000 0.0000 0.0000 34.2967 7.1705 -10.9773 -2.4393 -9.7266 28.0959 -1.4199 3.8052 -21.6053 -0.0011 -0.2164 0.5945 2.2270 -0.9025 -5.1694 5.2512 -1.6227 -0.7281 4.0617 -0.8844 2.2453 -12.1301 -13.1169 1.7054 10.0082 -20.1631 16.8598 3.6182 -10.2283 7.1297 -0.0000 0.0000 0.0000 -77.7838 37.4908 61.5126 57.0864 -55.4822 -31.9283 -0.0000 -0.0000 5.7071 42.6522 4.7506 4.3629 -7.1250 0.0000 -0.0000 13.4012 36.1408 -2.9854 -0.0000 0.0000 0.0000 13.9022 0.1158 -21.8308 -135.4602 50.5410 -98.1171 0.0000 -0.0000 -44.4943 -37.9452 14.1606 -10.7998 7.1250 -0.0000 -0.0000 -6.9969 -12.3373 -5.3815
0.00 0.00 0.00 -151.9280 -70.9503 157.5750 0.0000 0.0000 0.0000 -2.6253 2.9297 -10.1416 2.5361 9.9032 28.6639 -1.0566 21.4284 -20.8300 0.0296 -1.1105 -3.0528 0.0000 0.0000 0.0000 36.3498 6.6710 -9.9067 -2.4610 -9.7666 28.2243 -1.6670 1.2046 -24.0718 -0.2015 -2.8902 7.9731 4.1506 0.5186 -4.4362 5.0462 0.2461 -1.0389 2.8868 0.0578 1.4200 -5.3145 -5.1980 -5.0992 10.7473 -9.8119 21.6558 3.5540 -4.4965 8.3184 0.0000 0.0000 0.0000 -75.4761 36.6727 63.1210 56.5827 -55.3284 -31.5137 -0.0000 -0.0000 6.4535 39.1909 0.5811 0.4737 -7.1250 0.0000 -0.0000 9.9900 30.6423 -3.5515 0.0000 0.0000 0.0000 -25.6407 16.1792 -42.4460 -149.2103 41.5608 -108.0699 0.0000 -0.0000 -59.7791 -34.4030 6.9912 -4.7647 7.1250 -0.0000 -0.0000 -5.5336 -21.5415 -3.1296
